<?xml version="1.0" encoding="UTF-8" standalone="no"?>
<!-- Created with Inkscape (http://www.inkscape.org/) -->

<svg
   width="563.42999"
   height="319.01001"
   viewBox="0 0 149.07418 84.404734"
   version="1.1"
   id="svg5"
   sodipodi:docname="vector1.svg"
   inkscape:version="1.1 (c68e22c387, 2021-05-23)"
   xmlns:inkscape="http://www.inkscape.org/namespaces/inkscape"
   xmlns:sodipodi="http://sodipodi.sourceforge.net/DTD/sodipodi-0.dtd"
   xmlns="http://www.w3.org/2000/svg"
   xmlns:svg="http://www.w3.org/2000/svg">
  <sodipodi:namedview
     id="namedview7"
     pagecolor="#ffffff"
     bordercolor="#999999"
     borderopacity="1"
     inkscape:pageshadow="0"
     inkscape:pageopacity="0"
     inkscape:pagecheckerboard="0"
     inkscape:document-units="px"
     showgrid="false"
     inkscape:zoom="15.763323"
     inkscape:cx="114.95038"
     inkscape:cy="15.605846"
     inkscape:window-width="1920"
     inkscape:window-height="986"
     inkscape:window-x="-11"
     inkscape:window-y="-11"
     inkscape:window-maximized="1"
     inkscape:current-layer="layer1"
     units="px"
     inkscape:snap-global="false"
     width="563.42999px" />
  <defs
     id="defs2" />
  <g
     inkscape:label="Layer 1"
     inkscape:groupmode="layer"
     id="layer1">
    <path
       style="fill:#fbbb6d;stroke:none;stroke-width:0.166139"
       d="M 29.230612,0.13647497 C 24.159947,0.93461962 20.540684,5.9085076 18.763783,10.36422 c -4.267578,10.70125 -0.34508,23.106441 5.250591,32.563469 3.033272,5.126419 6.684084,9.714217 10.67062,14.121912 15.556703,17.200159 39.450149,30.954906 63.327645,26.480914 11.501551,-2.155167 22.659691,-8.329271 29.295501,-18.173905 2.93569,-4.355199 5.25468,-9.748608 4.73499,-15.118751 -0.2831,-2.926562 -1.46818,-5.854618 -2.7556,-8.473149 -1.61704,-3.288915 -3.69213,-6.265146 -6.85228,-8.236399 C 116.989,30.131077 109.85644,30.020097 103.66141,29.278447 97.188253,28.503404 90.841199,27.042698 84.389148,26.194388 77.031959,25.226953 69.814831,24.927731 62.957067,21.776552 54.805897,18.031255 48.907255,10.8124 42.023401,5.3136118 38.475979,2.4798896 34.033558,-0.61952921 29.230612,0.13647497 Z"
       id="path1112" />
  </g>
</svg>
